<svg width="2500" height="2500" viewBox="0 0 2500 2500" fill="none" xmlns="http://www.w3.org/2000/svg">
<path fill-rule="evenodd" clip-rule="evenodd" d="M1250 1793.55C1842.37 1793.55 2322.57 1550.19 2322.57 1250C2322.57 949.815 1842.37 706.45 1250 706.45C657.645 706.45 177.427 949.815 177.427 1250C177.427 1550.19 657.645 1793.55 1250 1793.55Z" fill="#6E81B6"/>
<path fill-rule="evenodd" clip-rule="evenodd" d="M1467.28 1425.69L1520.48 1151.87C1532.49 1090.07 1522.51 1043.98 1490.82 1014.85C1460.12 986.662 1408.01 972.953 1331.52 972.953H1239.38L1265.73 837.289C1266.23 834.764 1266.16 832.161 1265.52 829.667C1264.89 827.173 1263.72 824.849 1262.08 822.863C1260.45 820.877 1258.39 819.278 1256.07 818.179C1253.74 817.081 1251.2 816.512 1248.63 816.512H1121.46C1113.1 816.512 1105.93 822.439 1104.34 830.636L1047.83 1121.33C1042.69 1088.62 1030.03 1060.5 1009.77 1037.3C972.473 994.599 913.474 972.953 834.397 972.953H587.92C579.567 972.953 572.395 978.88 570.799 987.064L456.445 1575.48C455.446 1580.6 456.782 1585.87 460.102 1589.89C463.41 1593.92 468.338 1596.24 473.565 1596.24H601.732C610.085 1596.24 617.257 1590.31 618.852 1582.1L646.517 1439.79H741.922C791.986 1439.79 834.06 1434.37 866.899 1423.68C900.478 1412.76 931.385 1394.24 958.621 1368.74C980.631 1348.52 998.815 1325.87 1012.81 1301.45L989.969 1419.01C988.971 1424.13 990.306 1429.42 993.627 1433.42C996.934 1437.45 1001.88 1439.77 1007.09 1439.77H1134.26C1142.61 1439.77 1149.78 1433.85 1151.38 1425.66L1214.14 1102.68H1301.4C1338.58 1102.68 1349.48 1110.08 1352.45 1113.26C1355.13 1116.17 1360.71 1126.4 1354.45 1158.65L1303.86 1419C1303.38 1421.52 1303.46 1424.12 1304.09 1426.61C1304.73 1429.1 1305.91 1431.42 1307.54 1433.4C1309.18 1435.39 1311.23 1436.99 1313.55 1438.08C1315.88 1439.18 1318.41 1439.76 1320.98 1439.76H1450.18C1454.22 1439.77 1458.14 1438.37 1461.26 1435.8C1464.38 1433.23 1466.51 1429.66 1467.28 1425.69ZM877.703 1199.44C869.714 1240.49 854.669 1269.77 832.957 1286.46C810.909 1303.46 775.644 1312.07 728.136 1312.07H671.328L712.403 1100.69H785.851C839.805 1100.69 861.543 1112.22 870.271 1121.88C882.372 1135.3 884.94 1162.13 877.703 1199.44ZM2002.95 1037.3C1965.66 994.599 1906.66 972.953 1827.58 972.953H1581.11C1572.74 972.953 1565.58 978.88 1563.99 987.064L1449.64 1575.48C1448.63 1580.6 1449.97 1585.87 1453.29 1589.89C1456.61 1593.91 1461.55 1596.24 1466.74 1596.24H1594.92C1603.28 1596.24 1610.44 1590.31 1612.04 1582.1L1639.7 1439.79H1735.12C1785.2 1439.79 1827.23 1434.37 1860.09 1423.68C1893.68 1412.76 1924.58 1394.24 1951.81 1368.74C1974.53 1347.87 1993.22 1324.41 2007.38 1299.08C2021.55 1273.75 2031.7 1245.5 2037.63 1215.1C2052.19 1140.12 2040.53 1080.3 2002.95 1037.3ZM1878.16 1199.44C1870.16 1240.49 1855.12 1269.77 1833.43 1286.46C1811.37 1303.46 1776.11 1312.07 1728.61 1312.07H1671.79L1712.85 1100.69H1786.31C1840.27 1100.69 1862 1112.22 1870.75 1121.88C1882.82 1135.3 1885.4 1162.13 1878.16 1199.44Z" fill="white"/>
<path fill-rule="evenodd" clip-rule="evenodd" d="M785.851 1083.25C834.539 1083.25 867.003 1092.24 883.228 1110.21C899.44 1128.19 903.305 1159.06 894.823 1202.78C885.952 1248.31 868.883 1280.82 843.592 1300.3C818.301 1319.78 779.807 1329.5 728.135 1329.5H650.161L698.02 1083.25H785.851ZM473.552 1578.8H601.719L632.133 1422.37H741.922C790.364 1422.37 830.221 1417.27 861.504 1407.09C892.787 1396.91 921.229 1379.85 946.819 1355.9C968.297 1336.17 985.676 1314.38 998.983 1290.57C1012.28 1266.76 1021.72 1240.49 1027.31 1211.77C1040.88 1142.01 1030.64 1087.68 996.636 1048.77C962.642 1009.85 908.545 990.397 834.397 990.397H587.919L473.552 1578.8ZM1121.44 833.956H1248.61L1218.21 990.397H1331.51C1402.77 990.397 1451.97 1002.82 1479.02 1027.69C1506.07 1052.55 1514.18 1092.85 1503.36 1148.55L1450.16 1422.37H1320.97L1371.55 1162.01C1377.3 1132.39 1375.2 1112.2 1365.2 1101.42C1355.2 1090.65 1333.91 1085.26 1301.39 1085.26H1199.76L1134.24 1422.37H1007.08L1121.44 833.956ZM1786.31 1083.25C1835 1083.25 1867.45 1092.24 1883.69 1110.21C1899.9 1128.19 1903.75 1159.06 1895.27 1202.78C1886.43 1248.31 1869.36 1280.82 1844.05 1300.3C1818.78 1319.78 1780.27 1329.5 1728.62 1329.5H1650.65L1698.49 1083.25H1786.31ZM1473.99 1578.8H1602.17L1632.57 1422.37H1742.36C1790.81 1422.37 1830.67 1417.27 1861.95 1407.09C1893.24 1396.91 1921.68 1379.85 1947.27 1355.9C1968.75 1336.17 1986.12 1314.38 1999.42 1290.57C2012.71 1266.76 2022.17 1240.49 2027.77 1211.77C2041.32 1142.01 2031.09 1087.68 1997.1 1048.77C1963.08 1009.85 1908.99 990.397 1834.85 990.397H1588.37L1473.99 1578.8Z" fill="black"/>
</svg>
